<svg xmlns="http://www.w3.org/2000/svg" viewBox="0 0 1600 900" role="img" aria-label="Archive village record plaza">
  <defs>
    <linearGradient id="bg" x1="0" x2="1" y1="0" y2="1">
      <stop offset="0" stop-color="#0b111d"/>
      <stop offset=".5" stop-color="#28384c"/>
      <stop offset="1" stop-color="#070910"/>
    </linearGradient>
    <radialGradient id="lamp" cx="50%" cy="18%" r="70%">
      <stop offset="0" stop-color="#fff5df" stop-opacity=".26"/>
      <stop offset=".5" stop-color="#f1d16b" stop-opacity=".1"/>
      <stop offset="1" stop-color="#000000" stop-opacity="0"/>
    </radialGradient>
  </defs>
  <rect width="1600" height="900" fill="url(#bg)"/>
  <rect width="1600" height="900" fill="url(#lamp)"/>
  <g transform="translate(140 175)" fill="#101a2b" stroke="#fff5df" stroke-opacity=".15">
    <path d="M0 180 L210 20 L420 180 V540 H0 Z"/>
    <path d="M500 135 L680 0 L860 135 V540 H500 Z"/>
    <path d="M940 180 L1150 20 L1360 180 V540 H940 Z"/>
  </g>
  <g fill="#f1d16b" opacity=".3">
    <rect x="218" y="405" width="180" height="22"/>
    <rect x="218" y="462" width="250" height="18"/>
    <rect x="648" y="385" width="185" height="22"/>
    <rect x="648" y="442" width="260" height="18"/>
    <rect x="1128" y="405" width="180" height="22"/>
    <rect x="1128" y="462" width="250" height="18"/>
  </g>
  <g transform="translate(470 645)">
    <rect width="660" height="112" rx="14" fill="#07111f" stroke="#70eee6" stroke-opacity=".25"/>
    <rect x="48" y="34" width="250" height="18" fill="#70eee6" opacity=".26"/>
    <rect x="48" y="70" width="560" height="12" fill="#fff5df" opacity=".2"/>
    <text x="372" y="58" fill="#fff5df" font-family="Consolas, monospace" font-size="25" opacity=".46">WITNESS / RECORD PLAZA</text>
  </g>
</svg>
