<svg xmlns="http://www.w3.org/2000/svg" viewBox="0 0 1600 900" role="img" aria-labelledby="title desc">
  <title id="title">Censure chamber</title>
  <desc id="desc">A cold procedural review chamber with red warning seals, rule books, audit rails, and a central censure file.</desc>
  <defs>
    <radialGradient id="coldRoom" cx="50%" cy="38%" r="70%">
      <stop offset="0" stop-color="#2a3347"/>
      <stop offset=".48" stop-color="#0a182a"/>
      <stop offset="1" stop-color="#020711"/>
    </radialGradient>
    <linearGradient id="steel" x1="0" x2="1" y1="0" y2="1">
      <stop offset="0" stop-color="#1c3148"/>
      <stop offset=".55" stop-color="#0a1a2c"/>
      <stop offset="1" stop-color="#050b15"/>
    </linearGradient>
    <filter id="hardShadow" x="-20%" y="-20%" width="140%" height="140%">
      <feDropShadow dx="0" dy="22" stdDeviation="18" flood-color="#000611" flood-opacity=".62"/>
    </filter>
    <pattern id="scan" width="58" height="58" patternUnits="userSpaceOnUse">
      <path d="M58 0H0v58" fill="none" stroke="#ff715f" stroke-opacity=".06" stroke-width="1"/>
    </pattern>
  </defs>

  <rect width="1600" height="900" fill="url(#coldRoom)"/>
  <rect width="1600" height="900" fill="url(#scan)" opacity=".92"/>
  <path d="M0 630h1600v270H0Z" fill="#020814"/>
  <path d="M160 124h1280v510H160Z" fill="#030a16" opacity=".4"/>

  <g opacity=".35">
    <path d="M108 110 0 900h210L388 110Z" fill="#ff715f"/>
    <path d="M1492 110 1212 110l178 790h210Z" fill="#70eee6"/>
    <path d="M645 84 540 900h520L955 84Z" fill="#fff6d9" opacity=".45"/>
  </g>

  <g filter="url(#hardShadow)">
    <rect x="360" y="150" width="880" height="390" rx="16" fill="#071827" stroke="#b9eaff" stroke-opacity=".18" stroke-width="2"/>
    <rect x="402" y="192" width="796" height="306" rx="8" fill="#0a1d30"/>
    <path d="M442 246h294M442 298h218M442 350h312M442 402h256M864 246h254M864 298h194M864 350h284M864 402h224" stroke="#b9eaff" stroke-opacity=".2" stroke-width="8" stroke-linecap="round"/>
    <circle cx="800" cy="349" r="88" fill="none" stroke="#ff715f" stroke-opacity=".66" stroke-width="7"/>
    <path d="M747 349h106M800 296v106" stroke="#ff715f" stroke-opacity=".7" stroke-width="10" stroke-linecap="round"/>
  </g>

  <g filter="url(#hardShadow)">
    <path d="M330 568h940l86 164H244Z" fill="url(#steel)" stroke="#ff715f" stroke-opacity=".24" stroke-width="2"/>
    <path d="M380 598h840l36 70H344Z" fill="#071423" opacity=".82"/>
    <rect x="666" y="496" width="268" height="144" rx="10" fill="#fff6d9" transform="rotate(1 800 568)"/>
    <rect x="698" y="528" width="204" height="12" rx="6" fill="#071423" opacity=".78"/>
    <rect x="698" y="562" width="164" height="9" rx="4" fill="#071423" opacity=".48"/>
    <rect x="698" y="592" width="194" height="9" rx="4" fill="#071423" opacity=".48"/>
    <circle cx="891" cy="606" r="34" fill="none" stroke="#ff715f" stroke-opacity=".72" stroke-width="6"/>
    <path d="M868 606h46" stroke="#ff715f" stroke-opacity=".72" stroke-width="7" stroke-linecap="round"/>
  </g>

  <g filter="url(#hardShadow)" opacity=".9">
    <rect x="204" y="378" width="118" height="230" rx="12" fill="#071827" stroke="#ff715f" stroke-opacity=".24"/>
    <rect x="1278" y="378" width="118" height="230" rx="12" fill="#071827" stroke="#ff715f" stroke-opacity=".24"/>
    <path d="M232 430h62M232 472h42M232 514h62M1306 430h62M1306 472h42M1306 514h62" stroke="#ff715f" stroke-opacity=".42" stroke-width="7" stroke-linecap="round"/>
  </g>

  <g opacity=".78">
    <rect x="496" y="690" width="608" height="28" rx="14" fill="#ff715f" opacity=".28"/>
    <rect x="538" y="733" width="524" height="16" rx="8" fill="#70eee6" opacity=".18"/>
  </g>

  <path d="M0 0h1600v900H0Z" fill="#000" opacity=".14"/>
</svg>
