<svg xmlns="http://www.w3.org/2000/svg" viewBox="0 0 1600 900" role="img" aria-labelledby="title desc">
  <title id="title">Evidence board war room</title>
  <desc id="desc">A dark investigation room with connected evidence cards, timeline strings, monitor glow, and case notes.</desc>
  <defs>
    <radialGradient id="roomGlow" cx="50%" cy="42%" r="68%">
      <stop offset="0" stop-color="#163e63"/>
      <stop offset=".48" stop-color="#071a32"/>
      <stop offset="1" stop-color="#020713"/>
    </radialGradient>
    <linearGradient id="boardFace" x1="0" x2="1" y1="0" y2="1">
      <stop offset="0" stop-color="#0f2844"/>
      <stop offset=".58" stop-color="#0a1a30"/>
      <stop offset="1" stop-color="#06101f"/>
    </linearGradient>
    <linearGradient id="paper" x1="0" x2="1" y1="0" y2="1">
      <stop offset="0" stop-color="#fff6d9"/>
      <stop offset="1" stop-color="#c9d3d7"/>
    </linearGradient>
    <filter id="softShadow" x="-20%" y="-20%" width="140%" height="140%">
      <feDropShadow dx="0" dy="18" stdDeviation="18" flood-color="#000611" flood-opacity=".52"/>
    </filter>
    <pattern id="grid" width="42" height="42" patternUnits="userSpaceOnUse">
      <path d="M42 0H0v42" fill="none" stroke="#7be8df" stroke-opacity=".08" stroke-width="1"/>
    </pattern>
  </defs>

  <rect width="1600" height="900" fill="url(#roomGlow)"/>
  <rect width="1600" height="900" fill="url(#grid)" opacity=".78"/>
  <path d="M0 710c225-92 424-118 660-71 271 54 520 18 940-101v362H0Z" fill="#020916" opacity=".66"/>
  <path d="M92 118h1416v674H92Z" fill="#030a16" opacity=".42"/>

  <g filter="url(#softShadow)">
    <rect x="248" y="118" width="1104" height="636" rx="18" fill="url(#boardFace)" stroke="#b9eaff" stroke-opacity=".25" stroke-width="2"/>
    <rect x="286" y="158" width="1028" height="556" rx="10" fill="#061626" stroke="#7be8df" stroke-opacity=".16"/>
    <path d="M318 219h960M318 303h960M318 387h960M318 471h960M318 555h960M318 639h960" stroke="#b9eaff" stroke-opacity=".07" stroke-width="2"/>
    <path d="M438 180v508M665 180v508M891 180v508M1118 180v508" stroke="#f0d06b" stroke-opacity=".08" stroke-width="2"/>
  </g>

  <g stroke-linecap="round" stroke-width="4" opacity=".82">
    <path d="M443 297 653 228 874 320 1120 248" stroke="#f0d06b"/>
    <path d="M443 297 716 451 981 405 1168 575" stroke="#ff715f"/>
    <path d="M653 228 721 575 982 405 1120 248" stroke="#70eee6"/>
    <path d="M562 586 716 451 874 320 1168 575" stroke="#f0d06b" opacity=".58"/>
  </g>

  <g filter="url(#softShadow)">
    <rect x="367" y="236" width="156" height="122" rx="8" fill="url(#paper)" transform="rotate(-3 445 297)"/>
    <rect x="592" y="170" width="150" height="118" rx="8" fill="#cdefff" transform="rotate(2 667 229)"/>
    <rect x="805" y="265" width="156" height="118" rx="8" fill="#fff0ba" transform="rotate(-2 883 324)"/>
    <rect x="1048" y="190" width="160" height="126" rx="8" fill="#d6ffe8" transform="rotate(3 1128 253)"/>
    <rect x="640" y="395" width="166" height="126" rx="8" fill="#ffe0d7" transform="rotate(-1 723 458)"/>
    <rect x="910" y="352" width="160" height="120" rx="8" fill="#dbe3ff" transform="rotate(2 990 412)"/>
    <rect x="1095" y="510" width="170" height="132" rx="8" fill="#fff6d9" transform="rotate(-4 1180 576)"/>
    <rect x="486" y="523" width="160" height="126" rx="8" fill="#d6ffe8" transform="rotate(4 566 586)"/>
  </g>

  <g fill="#051122" opacity=".8">
    <rect x="394" y="272" width="98" height="8" rx="4"/>
    <rect x="394" y="296" width="74" height="7" rx="3"/>
    <rect x="617" y="205" width="96" height="8" rx="4"/>
    <rect x="617" y="229" width="72" height="7" rx="3"/>
    <rect x="834" y="300" width="98" height="8" rx="4"/>
    <rect x="834" y="324" width="72" height="7" rx="3"/>
    <rect x="1080" y="226" width="98" height="8" rx="4"/>
    <rect x="1080" y="250" width="68" height="7" rx="3"/>
    <rect x="670" y="434" width="102" height="8" rx="4"/>
    <rect x="670" y="459" width="76" height="7" rx="3"/>
    <rect x="939" y="390" width="98" height="8" rx="4"/>
    <rect x="939" y="414" width="71" height="7" rx="3"/>
    <rect x="1129" y="552" width="104" height="8" rx="4"/>
    <rect x="1129" y="579" width="76" height="7" rx="3"/>
    <rect x="518" y="566" width="96" height="8" rx="4"/>
    <rect x="518" y="590" width="70" height="7" rx="3"/>
  </g>

  <g fill="#70eee6">
    <circle cx="443" cy="297" r="10"/>
    <circle cx="653" cy="228" r="10"/>
    <circle cx="874" cy="320" r="10"/>
    <circle cx="1120" cy="248" r="10"/>
    <circle cx="716" cy="451" r="10"/>
    <circle cx="982" cy="405" r="10"/>
    <circle cx="1168" cy="575" r="10"/>
    <circle cx="562" cy="586" r="10"/>
  </g>

  <g opacity=".78">
    <rect x="124" y="186" width="92" height="378" rx="12" fill="#041323" stroke="#70eee6" stroke-opacity=".22"/>
    <rect x="138" y="213" width="64" height="46" rx="5" fill="#0c3152"/>
    <rect x="138" y="284" width="64" height="46" rx="5" fill="#10223a"/>
    <rect x="138" y="355" width="64" height="46" rx="5" fill="#10223a"/>
    <rect x="138" y="426" width="64" height="46" rx="5" fill="#10223a"/>
    <path d="M147 236h46M147 307h46M147 378h46M147 449h46" stroke="#f0d06b" stroke-opacity=".55" stroke-width="4"/>
  </g>

  <g opacity=".8">
    <rect x="1388" y="170" width="104" height="478" rx="14" fill="#041323" stroke="#f0d06b" stroke-opacity=".18"/>
    <path d="M1410 226h60M1410 266h40M1410 345h60M1410 385h36M1410 464h60M1410 504h44" stroke="#b9eaff" stroke-opacity=".3" stroke-width="7" stroke-linecap="round"/>
    <circle cx="1440" cy="594" r="28" fill="none" stroke="#ff715f" stroke-opacity=".52" stroke-width="3"/>
  </g>

  <path d="M0 0h1600v900H0Z" fill="none" stroke="#70eee6" stroke-opacity=".08" stroke-width="18"/>
  <path d="M0 0h1600v900H0Z" fill="#000" opacity=".14"/>
</svg>
