<svg xmlns="http://www.w3.org/2000/svg" viewBox="0 0 1600 900" role="img" aria-label="History forest crossroads">
  <defs>
    <linearGradient id="bg" x1="0" x2="1" y1="0" y2="1">
      <stop offset="0" stop-color="#08151b"/>
      <stop offset=".46" stop-color="#1e4b45"/>
      <stop offset="1" stop-color="#071019"/>
    </linearGradient>
    <radialGradient id="mist" cx="52%" cy="40%" r="62%">
      <stop offset="0" stop-color="#dffcff" stop-opacity=".3"/>
      <stop offset=".5" stop-color="#70eee6" stop-opacity=".11"/>
      <stop offset="1" stop-color="#000" stop-opacity="0"/>
    </radialGradient>
  </defs>
  <rect width="1600" height="900" fill="url(#bg)"/>
  <rect width="1600" height="900" fill="url(#mist)"/>
  <g fill="#09231f" opacity=".88">
    <path d="M220 0 C185 230 210 485 100 900 H0 V0 Z"/>
    <path d="M530 0 C500 240 548 495 430 900 H340 V0 Z"/>
    <path d="M1100 0 C1075 270 1115 505 1000 900 H900 V0 Z"/>
    <path d="M1435 0 C1410 235 1440 490 1340 900 H1245 V0 Z"/>
  </g>
  <path d="M788 900 C745 705 710 575 610 430 C520 300 440 245 350 185" fill="none" stroke="#f1d16b" stroke-width="14" stroke-linecap="round" opacity=".38"/>
  <path d="M810 900 C840 690 908 552 1045 410 C1135 316 1225 252 1320 194" fill="none" stroke="#70eee6" stroke-width="12" stroke-linecap="round" opacity=".36"/>
  <path d="M800 900 C810 645 802 475 800 230" fill="none" stroke="#fff5df" stroke-width="8" stroke-linecap="round" opacity=".2"/>
  <g fill="#fff5df" opacity=".2">
    <rect x="355" y="170" width="160" height="42" rx="4"/>
    <rect x="730" y="210" width="150" height="42" rx="4"/>
    <rect x="1115" y="175" width="170" height="42" rx="4"/>
  </g>
</svg>
