<svg xmlns="http://www.w3.org/2000/svg" viewBox="0 0 1600 900" role="img" aria-label="History trace forest archive">
  <defs>
    <linearGradient id="bg" x1="0" x2="1" y1="0" y2="1">
      <stop offset="0" stop-color="#061016"/>
      <stop offset=".46" stop-color="#163d38"/>
      <stop offset="1" stop-color="#050910"/>
    </linearGradient>
    <radialGradient id="glow" cx="52%" cy="34%" r="64%">
      <stop offset="0" stop-color="#dffcff" stop-opacity=".28"/>
      <stop offset=".48" stop-color="#70eee6" stop-opacity=".1"/>
      <stop offset="1" stop-color="#000000" stop-opacity="0"/>
    </radialGradient>
  </defs>
  <rect width="1600" height="900" fill="url(#bg)"/>
  <rect width="1600" height="900" fill="url(#glow)"/>
  <g fill="#061d1b" opacity=".9">
    <path d="M145 0 C118 210 145 510 45 900 H0 V0 Z"/>
    <path d="M390 0 C360 230 398 520 280 900 H200 V0 Z"/>
    <path d="M1250 0 C1210 245 1270 520 1150 900 H1068 V0 Z"/>
    <path d="M1515 0 C1482 260 1510 540 1430 900 H1344 V0 Z"/>
  </g>
  <g stroke-linecap="round" fill="none">
    <path d="M130 720 C350 630 500 610 720 690 C910 760 1110 755 1405 650" stroke="#70eee6" stroke-width="10" opacity=".22"/>
    <path d="M245 615 C460 520 625 512 800 585 C1000 668 1140 630 1340 540" stroke="#f1d16b" stroke-width="8" opacity=".24"/>
  </g>
  <g transform="translate(520 218)" opacity=".58">
    <rect x="0" y="0" width="560" height="292" rx="18" fill="#081521" stroke="#70eee6" stroke-opacity=".22"/>
    <rect x="48" y="48" width="190" height="22" fill="#fff5df" opacity=".35"/>
    <rect x="48" y="98" width="420" height="14" fill="#70eee6" opacity=".22"/>
    <rect x="48" y="136" width="360" height="14" fill="#70eee6" opacity=".16"/>
    <rect x="48" y="176" width="456" height="14" fill="#f1d16b" opacity=".18"/>
    <circle cx="462" cy="62" r="44" fill="#f1d16b" opacity=".18"/>
  </g>
  <text x="92" y="804" fill="#fff5df" font-family="Consolas, monospace" font-size="32" opacity=".42">TRACE MEMORY / FOREST ARCHIVE</text>
</svg>
