<svg xmlns="http://www.w3.org/2000/svg" viewBox="0 0 1600 900" role="img" aria-label="HR incident briefing room">
  <defs>
    <linearGradient id="bg" x1="0" x2="1" y1="0" y2="1">
      <stop offset="0" stop-color="#07111f"/>
      <stop offset=".46" stop-color="#17344b"/>
      <stop offset="1" stop-color="#080914"/>
    </linearGradient>
    <radialGradient id="deskLight" cx="50%" cy="36%" r="58%">
      <stop offset="0" stop-color="#dffcff" stop-opacity=".3"/>
      <stop offset=".45" stop-color="#70eee6" stop-opacity=".1"/>
      <stop offset="1" stop-color="#000" stop-opacity="0"/>
    </radialGradient>
  </defs>
  <rect width="1600" height="900" fill="url(#bg)"/>
  <rect width="1600" height="900" fill="url(#deskLight)"/>
  <g transform="translate(165 115)">
    <rect width="1270" height="485" rx="18" fill="#081421" stroke="#dffcff" stroke-opacity=".14"/>
    <rect x="58" y="54" width="360" height="160" rx="10" fill="#10243a" stroke="#70eee6" stroke-opacity=".2"/>
    <rect x="455" y="54" width="360" height="160" rx="10" fill="#10243a" stroke="#f1d16b" stroke-opacity=".18"/>
    <rect x="852" y="54" width="360" height="160" rx="10" fill="#10243a" stroke="#ff715f" stroke-opacity=".16"/>
    <g fill="#dffcff" opacity=".28">
      <rect x="95" y="98" width="190" height="12"/><rect x="95" y="132" width="270" height="9"/><rect x="95" y="162" width="220" height="9"/>
      <rect x="492" y="98" width="190" height="12"/><rect x="492" y="132" width="270" height="9"/><rect x="492" y="162" width="220" height="9"/>
      <rect x="889" y="98" width="190" height="12"/><rect x="889" y="132" width="270" height="9"/><rect x="889" y="162" width="220" height="9"/>
    </g>
    <path d="M100 355 H1170" stroke="#f1d16b" stroke-width="9" stroke-linecap="round" opacity=".36"/>
    <path d="M185 397 H1085" stroke="#70eee6" stroke-width="6" stroke-linecap="round" opacity=".28"/>
  </g>
  <g transform="translate(320 650)">
    <path d="M0 85 C210 18 750 18 960 85 L905 155 H55 Z" fill="#0a1322" stroke="#fff5df" stroke-opacity=".14"/>
    <rect x="355" y="42" width="250" height="38" rx="19" fill="#f1d16b" opacity=".22"/>
  </g>
  <g fill="#fff5df" opacity=".2" font-family="Consolas, monospace" font-size="28">
    <text x="600" y="548">CASE 2026-071 BRIEFING</text>
  </g>
</svg>
