<svg xmlns="http://www.w3.org/2000/svg" viewBox="0 0 1600 900" role="img" aria-label="Public forum">
  <defs>
    <linearGradient id="bg" x1="0" x2="1" y1="0" y2="1">
      <stop offset="0" stop-color="#101629"/>
      <stop offset=".42" stop-color="#1b5361"/>
      <stop offset="1" stop-color="#2d1820"/>
    </linearGradient>
    <radialGradient id="stage" cx="50%" cy="50%" r="55%">
      <stop offset="0" stop-color="#fff3ba" stop-opacity=".32"/>
      <stop offset=".38" stop-color="#70eee6" stop-opacity=".14"/>
      <stop offset="1" stop-color="#000" stop-opacity="0"/>
    </radialGradient>
  </defs>
  <rect width="1600" height="900" fill="url(#bg)"/>
  <rect width="1600" height="900" fill="url(#stage)"/>
  <g transform="translate(170 170)" opacity=".78">
    <rect x="0" y="0" width="1260" height="370" rx="18" fill="#071122" stroke="#70eee6" stroke-opacity=".22"/>
    <rect x="80" y="80" width="1100" height="130" rx="8" fill="#dffcff" opacity=".08"/>
    <path d="M130 260 H1130" stroke="#f1d16b" stroke-width="10" stroke-linecap="round" opacity=".55"/>
    <path d="M210 308 H1040" stroke="#70eee6" stroke-width="6" stroke-linecap="round" opacity=".38"/>
  </g>
  <g transform="translate(260 625)" fill="#0a1120" stroke="#eaf9ff" stroke-opacity=".12">
    <path d="M0 150 C180 25 900 25 1080 150 V210 H0 Z"/>
    <path d="M100 115 C250 48 825 48 980 115"/>
    <path d="M220 83 C340 42 730 42 860 83"/>
  </g>
  <g fill="#f1d16b" opacity=".7">
    <circle cx="420" cy="700" r="12"/><circle cx="540" cy="675" r="11"/><circle cx="660" cy="662" r="12"/><circle cx="780" cy="660" r="11"/>
    <circle cx="900" cy="672" r="12"/><circle cx="1020" cy="698" r="11"/><circle cx="1140" cy="730" r="12"/>
  </g>
  <g fill="#dffcff" opacity=".22" font-family="Consolas, monospace" font-size="28">
    <text x="610" y="305">PUBLIC RECORD OPEN</text>
  </g>
</svg>
