<svg xmlns="http://www.w3.org/2000/svg" viewBox="0 0 1600 900" role="img" aria-label="Regulation labyrinth core">
  <defs>
    <linearGradient id="bg" x1="0" x2="1" y1="0" y2="1">
      <stop offset="0" stop-color="#07111f"/>
      <stop offset=".5" stop-color="#172743"/>
      <stop offset="1" stop-color="#05070d"/>
    </linearGradient>
    <radialGradient id="core" cx="50%" cy="46%" r="62%">
      <stop offset="0" stop-color="#70eee6" stop-opacity=".24"/>
      <stop offset=".5" stop-color="#f1d16b" stop-opacity=".1"/>
      <stop offset="1" stop-color="#000000" stop-opacity="0"/>
    </radialGradient>
  </defs>
  <rect width="1600" height="900" fill="url(#bg)"/>
  <rect width="1600" height="900" fill="url(#core)"/>
  <g fill="none" stroke="#70eee6" stroke-width="18" stroke-linecap="square" opacity=".24">
    <path d="M260 190 H600 V330 H430 V470 H760 V610 H250"/>
    <path d="M1340 190 H1000 V330 H1170 V470 H840 V610 H1350"/>
    <path d="M470 730 H720 V540 H590 V380 H760 V220"/>
    <path d="M1130 730 H880 V540 H1010 V380 H840 V220"/>
  </g>
  <g fill="none" stroke="#f1d16b" stroke-width="10" stroke-linecap="round" opacity=".35">
    <path d="M800 146 V754"/>
    <path d="M520 450 H1080"/>
    <circle cx="800" cy="450" r="112"/>
  </g>
  <g transform="translate(602 362)">
    <rect width="396" height="176" rx="16" fill="#07111f" stroke="#fff5df" stroke-opacity=".2"/>
    <text x="68" y="72" fill="#fff5df" font-family="Consolas, monospace" font-size="30" opacity=".58">RULE NODE</text>
    <rect x="66" y="100" width="264" height="14" fill="#70eee6" opacity=".22"/>
    <rect x="66" y="132" width="210" height="14" fill="#f1d16b" opacity=".22"/>
  </g>
</svg>
