<svg xmlns="http://www.w3.org/2000/svg" viewBox="0 0 1600 900" role="img" aria-label="Review data room">
  <defs>
    <linearGradient id="bg" x1="1" x2="0" y1="0" y2="1">
      <stop offset="0" stop-color="#0d1524"/>
      <stop offset=".44" stop-color="#233a43"/>
      <stop offset="1" stop-color="#080913"/>
    </linearGradient>
  </defs>
  <rect width="1600" height="900" fill="url(#bg)"/>
  <g transform="translate(130 120)">
    <rect width="1340" height="620" rx="18" fill="#07111f" stroke="#fff5df" stroke-opacity=".13"/>
    <g transform="translate(58 58)">
      <rect width="370" height="500" rx="10" fill="#0e1e30" stroke="#70eee6" stroke-opacity=".26"/>
      <rect x="38" y="42" width="170" height="16" fill="#f1d16b" opacity=".74"/>
      <rect x="38" y="94" width="290" height="10" fill="#dffcff" opacity=".36"/>
      <rect x="38" y="128" width="250" height="10" fill="#dffcff" opacity=".28"/>
      <rect x="38" y="162" width="305" height="10" fill="#dffcff" opacity=".2"/>
      <circle cx="288" cy="372" r="72" fill="none" stroke="#70eee6" stroke-width="12" stroke-opacity=".45"/>
      <path d="M245 372 L284 410 L350 330" fill="none" stroke="#f1d16b" stroke-width="12" stroke-linecap="round" stroke-linejoin="round"/>
    </g>
    <g transform="translate(520 70)" opacity=".92">
      <rect width="700" height="170" rx="12" fill="#12243a" stroke="#70eee6" stroke-opacity=".22"/>
      <rect x="38" y="42" width="610" height="14" fill="#70eee6" opacity=".5"/>
      <rect x="38" y="82" width="420" height="10" fill="#fff5df" opacity=".32"/>
      <rect x="38" y="112" width="540" height="10" fill="#fff5df" opacity=".2"/>
      <rect y="230" width="700" height="250" rx="12" fill="#111b2c" stroke="#f1d16b" stroke-opacity=".18"/>
      <path d="M55 382 H640" stroke="#70eee6" stroke-width="4" opacity=".3"/>
      <path d="M55 330 H640" stroke="#70eee6" stroke-width="4" opacity=".18"/>
      <path d="M55 434 H640" stroke="#70eee6" stroke-width="4" opacity=".18"/>
      <path d="M118 440 V290M240 440V290M362 440V290M484 440V290M606 440V290" stroke="#fff5df" stroke-width="3" opacity=".12"/>
    </g>
  </g>
</svg>
