<svg xmlns="http://www.w3.org/2000/svg" viewBox="0 0 1600 900" role="img" aria-label="Rule archive shelves">
  <defs>
    <linearGradient id="bg" x1="0" x2="1" y1="0" y2="1">
      <stop offset="0" stop-color="#15101a"/>
      <stop offset=".45" stop-color="#2b3449"/>
      <stop offset="1" stop-color="#070a12"/>
    </linearGradient>
    <radialGradient id="lamp" cx="50%" cy="16%" r="62%">
      <stop offset="0" stop-color="#fff5df" stop-opacity=".36"/>
      <stop offset=".42" stop-color="#f1d16b" stop-opacity=".12"/>
      <stop offset="1" stop-color="#000" stop-opacity="0"/>
    </radialGradient>
  </defs>
  <rect width="1600" height="900" fill="url(#bg)"/>
  <rect width="1600" height="900" fill="url(#lamp)"/>
  <g transform="translate(130 120)" stroke="#fff5df" stroke-opacity=".14">
    <rect width="360" height="600" rx="10" fill="#11192a"/>
    <rect x="420" width="360" height="600" rx="10" fill="#10182a"/>
    <rect x="840" width="360" height="600" rx="10" fill="#11192a"/>
    <g fill="#f1d16b" opacity=".35">
      <rect x="42" y="70" width="276" height="28"/><rect x="42" y="150" width="276" height="28"/><rect x="42" y="230" width="276" height="28"/><rect x="42" y="310" width="276" height="28"/><rect x="42" y="390" width="276" height="28"/>
      <rect x="462" y="70" width="276" height="28"/><rect x="462" y="150" width="276" height="28"/><rect x="462" y="230" width="276" height="28"/><rect x="462" y="310" width="276" height="28"/><rect x="462" y="390" width="276" height="28"/>
      <rect x="882" y="70" width="276" height="28"/><rect x="882" y="150" width="276" height="28"/><rect x="882" y="230" width="276" height="28"/><rect x="882" y="310" width="276" height="28"/><rect x="882" y="390" width="276" height="28"/>
    </g>
  </g>
  <g transform="translate(565 610)">
    <rect width="470" height="95" rx="10" fill="#07111f" stroke="#70eee6" stroke-opacity=".24"/>
    <text x="46" y="58" fill="#dffcff" opacity=".58" font-family="Consolas, monospace" font-size="28">EXCEPTION CLAUSE</text>
  </g>
</svg>
